<svg width="516" height="459" viewBox="0 0 516 459" fill="none" xmlns="http://www.w3.org/2000/svg">
<g clip-path="url(#clip0_605_193)">
<path d="M1.78955 21.4738C1.78955 9.57372 11.3633 0 23.2633 0H63.974C83.6583 0 101.106 11.4527 109.248 28.6317H476.986C500.518 28.6317 517.697 51.0002 511.523 73.7266L474.839 209.996C467.233 238.09 441.733 257.685 412.654 257.685H154.522L159.353 283.185C161.322 293.296 170.18 300.633 180.469 300.633H438.423C450.323 300.633 459.897 310.206 459.897 322.106C459.897 334.007 450.323 343.58 438.423 343.58H180.469C149.511 343.58 122.937 321.57 117.211 291.238L71.0424 48.7633C70.4161 45.3633 67.4635 42.9475 63.974 42.9475H23.2633C11.3633 42.9475 1.78955 33.3738 1.78955 21.4738ZM116.316 415.159C116.316 409.52 117.427 403.935 119.585 398.724C121.744 393.514 124.907 388.779 128.895 384.791C132.883 380.803 137.618 377.639 142.829 375.481C148.039 373.323 153.624 372.212 159.264 372.212C164.904 372.212 170.488 373.323 175.699 375.481C180.91 377.639 185.644 380.803 189.632 384.791C193.62 388.779 196.784 393.514 198.942 398.724C201.1 403.935 202.211 409.52 202.211 415.159C202.211 420.799 201.1 426.384 198.942 431.595C196.784 436.805 193.62 441.54 189.632 445.528C185.644 449.516 180.91 452.679 175.699 454.838C170.488 456.996 164.904 458.107 159.264 458.107C153.624 458.107 148.039 456.996 142.829 454.838C137.618 452.679 132.883 449.516 128.895 445.528C124.907 441.54 121.744 436.805 119.585 431.595C117.427 426.384 116.316 420.799 116.316 415.159ZM416.949 372.212C428.339 372.212 439.263 376.737 447.317 384.791C455.372 392.845 459.897 403.769 459.897 415.159C459.897 426.55 455.372 437.474 447.317 445.528C439.263 453.582 428.339 458.107 416.949 458.107C405.559 458.107 394.635 453.582 386.581 445.528C378.526 437.474 374.001 426.55 374.001 415.159C374.001 403.769 378.526 392.845 386.581 384.791C394.635 376.737 405.559 372.212 416.949 372.212Z" fill="url(#paint0_radial_605_193)"/>
</g>
<defs>
<radialGradient id="paint0_radial_605_193" cx="0" cy="0" r="1" gradientUnits="userSpaceOnUse" gradientTransform="translate(240 249.5) rotate(-42.7094) scale(300.761 335.487)">
<stop stop-color="#15E399"/>
<stop offset="1" stop-color="#0B7D54"/>
</radialGradient>
<clipPath id="clip0_605_193">
<rect width="515.37" height="458.107" fill="white"/>
</clipPath>
</defs>
</svg>
