<svg width="748" height="708" viewBox="0 0 748 708" fill="none" xmlns="http://www.w3.org/2000/svg">
<path d="M0 0H748V708H0V0Z" fill="url(#paint0_radial_601_189)"/>
<path d="M119 146.474C119 134.574 128.574 125 140.474 125H181.184C200.869 125 218.316 136.453 226.458 153.632H594.196C617.728 153.632 634.907 176 628.733 198.727L592.049 334.996C584.444 363.09 558.944 382.685 529.865 382.685H271.732L276.564 408.185C278.532 418.296 287.39 425.633 297.68 425.633H555.633C567.533 425.633 577.107 435.206 577.107 447.106C577.107 459.007 567.533 468.58 555.633 468.58H297.68C266.722 468.58 240.148 446.57 234.421 416.238L188.253 173.763C187.627 170.363 184.674 167.948 181.184 167.948H140.474C128.574 167.948 119 158.374 119 146.474ZM233.527 540.159C233.527 534.52 234.638 528.935 236.796 523.724C238.954 518.514 242.118 513.779 246.106 509.791C250.094 505.803 254.828 502.639 260.039 500.481C265.25 498.323 270.834 497.212 276.474 497.212C282.114 497.212 287.699 498.323 292.91 500.481C298.12 502.639 302.855 505.803 306.843 509.791C310.831 513.779 313.994 518.514 316.153 523.724C318.311 528.935 319.422 534.52 319.422 540.159C319.422 545.799 318.311 551.384 316.153 556.595C313.994 561.805 310.831 566.54 306.843 570.528C302.855 574.516 298.12 577.679 292.91 579.838C287.699 581.996 282.114 583.107 276.474 583.107C270.834 583.107 265.25 581.996 260.039 579.838C254.828 577.679 250.094 574.516 246.106 570.528C242.118 566.54 238.954 561.805 236.796 556.595C234.638 551.384 233.527 545.799 233.527 540.159ZM534.159 497.212C545.55 497.212 556.474 501.737 564.528 509.791C572.582 517.845 577.107 528.769 577.107 540.159C577.107 551.55 572.582 562.474 564.528 570.528C556.474 578.582 545.55 583.107 534.159 583.107C522.769 583.107 511.845 578.582 503.791 570.528C495.737 562.474 491.212 551.55 491.212 540.159C491.212 528.769 495.737 517.845 503.791 509.791C511.845 501.737 522.769 497.212 534.159 497.212Z" fill="white"/>
<defs>
<radialGradient id="paint0_radial_601_189" cx="0" cy="0" r="1" gradientUnits="userSpaceOnUse" gradientTransform="translate(374 354) rotate(90) scale(354 374)">
<stop stop-color="#14E399"/>
<stop offset="1" stop-color="#0B7D54"/>
</radialGradient>
</defs>
</svg>
