<svg width="24" height="24" viewBox="0 0 24 24" fill="none" xmlns="http://www.w3.org/2000/svg">
<path d="M17.25 7.8105L19.5 5.5605L18.4395 4.5L15.9697 6.96975C15.829 7.11037 15.75 7.3011 15.75 7.5V10.5H10.4445L11.3017 22.5H17.9482L18.8055 10.5H17.25V7.8105ZM16.5525 21H12.6975L12.0555 12H17.1945L16.5525 21Z" fill="black"/>
<path d="M11.25 0.75H7.5C7.30109 0.75 7.11032 0.829018 6.96967 0.96967C6.82902 1.11032 6.75 1.30109 6.75 1.5V7.0275C5.94975 7.482 4.5 8.661 4.5 11.25V21.75C4.5 21.9489 4.57902 22.1397 4.71967 22.2803C4.86032 22.421 5.05109 22.5 5.25 22.5H9V21H6V11.25C6 8.4345 8.25 8.04 8.25 8.04V2.25H10.5V7.5H12V1.5C12 1.30109 11.921 1.11032 11.7803 0.96967C11.6397 0.829018 11.4489 0.75 11.25 0.75Z" fill="black"/>
</svg>
