<svg width="24" height="24" viewBox="0 0 24 24" fill="none" xmlns="http://www.w3.org/2000/svg">
<g clip-path="url(#clip0_134_272)">
<path fill-rule="evenodd" clip-rule="evenodd" d="M14.194 2.88497C16.494 2.58597 18.652 3.09497 19.839 4.28197C20.629 5.07297 21.019 5.99297 20.999 7.00197C20.982 7.96297 20.594 8.89597 20.061 9.76597C19.299 11.011 18.109 12.329 16.791 13.681L16.062 14.421L14.446 16.038L13.755 16.72C12.377 18.066 11.033 19.286 9.76597 20.061C8.89597 20.594 7.96297 20.981 7.00197 21C5.99297 21.02 5.07297 20.63 4.28197 19.839C3.09497 18.652 2.58597 16.494 2.88497 14.194C3.19197 11.834 4.35597 9.15897 6.75697 6.75697C9.15897 4.35697 11.835 3.19197 14.194 2.88497V2.88497ZM5.69097 11.665C5.35122 12.3928 5.10203 13.1595 4.94897 13.948C5.36897 14.308 5.86797 14.586 6.44097 14.778C6.69266 14.8619 6.96739 14.8424 7.20472 14.7238C7.44205 14.6052 7.62253 14.3972 7.70647 14.1455C7.79041 13.8938 7.77093 13.6191 7.65232 13.3817C7.5337 13.1444 7.32566 12.9639 7.07397 12.88C6.40697 12.658 5.96197 12.268 5.69097 11.664V11.665ZM8.69097 7.67897C8.18693 8.13315 7.71699 8.62381 7.28497 9.14697C7.47897 9.39797 7.69097 9.63597 7.90597 9.85097C8.49097 10.435 9.23897 10.996 9.97597 11.241C10.2182 11.3228 10.4826 11.3087 10.7148 11.2015C10.9469 11.0944 11.1293 10.9025 11.2243 10.6651C11.3193 10.4277 11.3197 10.1629 11.2256 9.92523C11.1314 9.68751 10.9498 9.4949 10.718 9.38697L10.609 9.34397C10.286 9.23697 9.79697 8.91397 9.32097 8.43697C9.08697 8.20526 8.87599 7.9514 8.69097 7.67897V7.67897ZM13.111 5.14897C12.493 5.32697 11.852 5.57897 11.204 5.91697C11.724 6.76397 12.503 7.36897 13.512 7.70597C13.637 7.74955 13.7695 7.76786 13.9017 7.75983C14.0339 7.75179 14.1632 7.71758 14.282 7.65918C14.4009 7.60077 14.507 7.51934 14.5941 7.4196C14.6812 7.31987 14.7477 7.20382 14.7896 7.07819C14.8315 6.95257 14.8481 6.81986 14.8383 6.68779C14.8285 6.55571 14.7926 6.4269 14.7326 6.30882C14.6727 6.19074 14.5898 6.08575 14.4889 5.99994C14.3881 5.91414 14.2711 5.84923 14.145 5.80897C13.711 5.66397 13.371 5.44897 13.111 5.14897V5.14897Z" fill="black"/>
</g>
<defs>
<clipPath id="clip0_134_272">
<rect width="24" height="24" fill="white"/>
</clipPath>
</defs>
</svg>
