<svg width="24" height="24" viewBox="0 0 24 24" fill="none" xmlns="http://www.w3.org/2000/svg">
<path d="M8.3205 4.47675L8.08575 4.52325C3.234 5.60175 2.27325 10.3597 2.27325 10.3597L2.25 10.4287V19.5H21.75V15H21C20.5755 15 20.25 14.6745 20.25 14.25C20.25 13.8255 20.5755 13.5 21 13.5H21.75V10.008L21.2812 9.79725L8.53125 4.54725L8.3205 4.47675ZM8.22675 6.0705L10.3125 6.9375C9.98175 7.0755 9.75 7.26825 9.75 7.5C9.75 7.9125 10.4212 8.25 11.25 8.25C11.8185 8.25 12.3075 8.08575 12.5625 7.85175L17.1795 9.75H4.03125C4.48275 8.64 5.60175 6.75 8.22675 6.0705V6.0705ZM3.75 11.25H6.0705C6.02629 11.3702 6.00246 11.4969 6 11.625C6 11.9234 6.11853 12.2095 6.3295 12.4205C6.54048 12.6315 6.82663 12.75 7.125 12.75C7.42337 12.75 7.70952 12.6315 7.9205 12.4205C8.13147 12.2095 8.25 11.9234 8.25 11.625C8.25 11.496 8.22 11.367 8.1795 11.25H20.25V12.3045C19.4175 12.636 18.75 13.3065 18.75 14.25C18.75 15.1935 19.4175 15.864 20.25 16.1955V18H11.0392C11.1682 17.7802 11.25 17.5222 11.25 17.25C11.25 16.8522 11.092 16.4706 10.8107 16.1893C10.5294 15.908 10.1478 15.75 9.75 15.75C9.35218 15.75 8.97064 15.908 8.68934 16.1893C8.40804 16.4706 8.25 16.8522 8.25 17.25C8.25 17.5222 8.3325 17.7802 8.46075 18H3.75V11.25ZM14.625 12.75C14.3266 12.75 14.0405 12.8685 13.8295 13.0795C13.6185 13.2905 13.5 13.5766 13.5 13.875C13.5 14.1734 13.6185 14.4595 13.8295 14.6705C14.0405 14.8815 14.3266 15 14.625 15C14.9234 15 15.2095 14.8815 15.4205 14.6705C15.6315 14.4595 15.75 14.1734 15.75 13.875C15.75 13.5766 15.6315 13.2905 15.4205 13.0795C15.2095 12.8685 14.9234 12.75 14.625 12.75Z" fill="black"/>
</svg>
