<svg width="24" height="24" viewBox="0 0 24 24" fill="none" xmlns="http://www.w3.org/2000/svg">
<path fill-rule="evenodd" clip-rule="evenodd" d="M12 18L13.985 4.329C14.0128 4.16462 14.0012 3.99599 13.951 3.837C13.8994 3.67457 13.8115 3.526 13.694 3.4025C13.5721 3.27431 13.4246 3.17313 13.261 3.1055C13.0931 3.03567 12.9129 2.99982 12.731 3H4.27003C4.08703 3 3.90603 3.036 3.74003 3.105C3.5763 3.17273 3.42861 3.27408 3.30653 3.4025C3.18906 3.526 3.10118 3.67457 3.04953 3.837C2.99953 3.997 2.98753 4.165 3.01503 4.329L5.00003 18V19.25C5.00003 19.7075 5.17453 20.1505 5.49103 20.48C5.64704 20.6438 5.83458 20.7743 6.04236 20.8636C6.25014 20.953 6.47385 20.9994 6.70003 21H10.3C10.7575 21 11.192 20.81 11.509 20.48C11.8251 20.1486 12.001 19.708 12 19.25V18ZM9.04603 7.656C9.04603 7.52339 8.99335 7.39622 8.89959 7.30245C8.80582 7.20868 8.67864 7.156 8.54603 7.156C8.41342 7.156 8.28625 7.20868 8.19248 7.30245C8.09871 7.39622 8.04603 7.52339 8.04603 7.656V9.4225H6.23803C6.10543 9.4225 5.97825 9.47518 5.88448 9.56895C5.79071 9.66272 5.73803 9.78989 5.73803 9.9225C5.73803 10.0551 5.79071 10.1823 5.88448 10.2761C5.97825 10.3698 6.10543 10.4225 6.23803 10.4225H8.04603V12.189C8.04603 12.3216 8.09871 12.4488 8.19248 12.5426C8.28625 12.6363 8.41342 12.689 8.54603 12.689C8.67864 12.689 8.80582 12.6363 8.89959 12.5426C8.99335 12.4488 9.04603 12.3216 9.04603 12.189V10.4225H10.8535C10.9861 10.4225 11.1133 10.3698 11.2071 10.2761C11.3009 10.1823 11.3535 10.0551 11.3535 9.9225C11.3535 9.78989 11.3009 9.66272 11.2071 9.56895C11.1133 9.47518 10.9861 9.4225 10.8535 9.4225H9.04603V7.656ZM10.788 19.7875C10.9215 19.6485 11 19.4555 11 19.25V18.5H6.00003V19.25C6.00003 19.455 6.07853 19.6485 6.21203 19.7875C6.34503 19.926 6.52103 20 6.70003 20H10.3C10.479 20 10.655 19.926 10.788 19.7875Z" fill="black"/>
<path d="M21 3.5C21 3.36739 20.9473 3.24021 20.8536 3.14645C20.7598 3.05268 20.6326 3 20.5 3C20.3674 3 20.2402 3.05268 20.1464 3.14645C20.0527 3.24021 20 3.36739 20 3.5H17V4.5H20V5.5H17V6.5H20V7.5H17V8.5H20V9.496L18.1215 11.6735C18.0432 11.7642 18 11.8801 18 12V20.5C18 20.6326 18.0527 20.7598 18.1464 20.8536C18.2402 20.9473 18.3674 21 18.5 21C18.6326 21 18.7598 20.9473 18.8536 20.8536C18.9473 20.7598 19 20.6326 19 20.5V12.186L20.8785 10.0085C20.9568 9.91775 21 9.80188 21 9.682V3.5Z" fill="black"/>
</svg>
