<svg width="24" height="24" viewBox="0 0 24 24" fill="none" xmlns="http://www.w3.org/2000/svg">
<path d="M7.6875 1.50656C7.35938 1.50656 7.04531 1.63781 6.80625 1.86937C6.57187 2.10141 6.44062 2.41875 6.44062 2.75156L6.44531 4.17094V4.72031C6.1875 4.79531 5.98594 5.03437 5.98594 5.32031C5.98594 5.67187 6.27656 5.95312 6.62344 5.95312H7.39688V6.35625L6.25781 7.13906C5.44688 7.70156 4.96875 8.61094 4.96875 9.58594V19.4766C4.96875 21.1406 6.32812 22.4953 7.99219 22.4953H16.0125C17.6766 22.4953 19.0312 21.1406 19.0312 19.4766V9.58594C19.0312 8.61094 18.5531 7.70156 17.7422 7.13906L16.6078 6.35625V5.95312H17.3812C17.7234 5.95312 18.0047 5.67187 18.0047 5.32031C18.0047 5.03437 17.8125 4.79531 17.5547 4.72031V2.75156C17.5547 2.41875 17.4234 2.10141 17.1891 1.86937C16.95 1.63781 16.6359 1.50656 16.3078 1.50656H7.6875ZM7.6875 2.34328H16.3125C16.4156 2.34328 16.5234 2.38875 16.5984 2.46422C16.6594 2.52516 16.6969 2.60016 16.7062 2.68594L11.4516 3.25547C11.2172 3.28078 11.0531 3.4875 11.0766 3.71953C11.1 3.95297 11.3109 4.11797 11.5359 4.09359L16.7109 3.52781V4.69219H7.28437V4.55437L9.34687 4.33125C9.58125 4.30219 9.74531 4.09828 9.72187 3.86531C9.69844 3.63375 9.4875 3.46734 9.2625 3.49219L7.28437 3.70922V2.75156C7.28437 2.64047 7.33125 2.54016 7.40156 2.46422C7.47656 2.38875 7.58906 2.34328 7.6875 2.34328ZM8.44219 5.95312H15.5531V6.90937L17.1516 8.00625C17.6672 8.3625 17.9813 8.95781 17.9813 9.58594V19.4766C17.9813 20.5828 17.0953 21.4406 16.0125 21.4406H7.99219C6.90469 21.4406 6.02344 20.5828 6.02344 19.4766V9.58594C6.02344 8.95781 6.33281 8.3625 6.84844 8.00625L8.44219 6.90937V5.95312ZM13.5469 6.89531V8.01094L15.8719 9.61875C15.9281 9.66094 15.9656 9.72187 15.9656 9.79687V19.2703C15.9656 19.725 15.825 20.1281 15.5672 20.4844C16.1719 20.4281 16.8328 19.875 16.8328 19.2703V9.79219C16.8328 9.40312 16.6453 9.03281 16.3266 8.8125L14.4188 7.49531V6.89531H13.5469Z" fill="black"/>
</svg>
