<svg width="24" height="24" viewBox="0 0 24 24" fill="none" xmlns="http://www.w3.org/2000/svg">
<path d="M17.7685 6.94283C17.7685 11.1591 13.0837 10.8728 13.0837 13.7878V13.8035C13.0837 14.1398 12.8112 14.4124 12.4749 14.4124H9.9188C9.58251 14.4124 9.30994 14.1398 9.30994 13.8035V13.6316C9.30994 9.12903 13.4221 9.41534 13.4221 7.30719C13.4221 6.39626 12.7455 5.8497 11.6263 5.8497C10.7159 5.8497 9.78548 6.24781 8.93972 7.06147C8.72297 7.26997 8.38406 7.28314 8.1472 7.09784L6.46617 5.783C6.18286 5.56142 6.15 5.14151 6.40045 4.88333C7.80389 3.43653 9.62761 2.57037 12.0427 2.57037C15.8686 2.57042 17.7685 4.6265 17.7685 6.94283ZM13.6042 19.1492C13.6042 20.4506 12.5632 21.5176 11.2359 21.5176C9.93455 21.5176 8.86748 20.4506 8.86748 19.1492C8.86748 17.8479 9.93455 16.7809 11.2359 16.7809C12.5632 16.7809 13.6042 17.8479 13.6042 19.1492Z" fill="black"/>
</svg>
