<svg width="38" height="38" viewBox="0 0 38 38" fill="none" xmlns="http://www.w3.org/2000/svg">
<path d="M30.1198 26.8803C29.3782 26.1699 28.6564 25.4392 27.9553 24.6889C27.3663 24.0904 27.0117 23.655 27.0117 23.655L22.5783 21.5381C24.3532 19.5251 25.3328 16.9338 25.3333 14.25C25.3333 8.13994 20.3617 3.16669 14.25 3.16669C8.13834 3.16669 3.16667 8.13994 3.16667 14.25C3.16667 20.3601 8.13834 25.3334 14.25 25.3334C17.0414 25.3334 19.5858 24.2884 21.5381 22.5799L23.655 27.0133C23.655 27.0133 24.0904 27.3679 24.6889 27.9569C25.3017 28.5317 26.1076 29.3091 26.8803 30.1214L29.0304 32.3254L29.9868 33.3482L33.345 29.9899L32.3222 29.0336C31.7221 28.4446 30.9209 27.6624 30.1198 26.8803ZM14.25 22.1667C9.88476 22.1667 6.33334 18.6153 6.33334 14.25C6.33334 9.88477 9.88476 6.33335 14.25 6.33335C18.6153 6.33335 22.1667 9.88477 22.1667 14.25C22.1667 18.6153 18.6153 22.1667 14.25 22.1667Z" fill="white"/>
</svg>
