<svg width="21" height="22" viewBox="0 0 21 22" fill="none" xmlns="http://www.w3.org/2000/svg">
<path d="M7.63636 17.875V7.79167C7.63636 7.65799 7.59162 7.54818 7.50213 7.46224C7.41264 7.3763 7.2983 7.33333 7.15909 7.33333H6.20455C6.06534 7.33333 5.95099 7.3763 5.86151 7.46224C5.77202 7.54818 5.72727 7.65799 5.72727 7.79167V17.875C5.72727 18.0087 5.77202 18.1185 5.86151 18.2044C5.95099 18.2904 6.06534 18.3333 6.20455 18.3333H7.15909C7.2983 18.3333 7.41264 18.2904 7.50213 18.2044C7.59162 18.1185 7.63636 18.0087 7.63636 17.875ZM11.4545 17.875V7.79167C11.4545 7.65799 11.4098 7.54818 11.3203 7.46224C11.2308 7.3763 11.1165 7.33333 10.9773 7.33333H10.0227C9.88352 7.33333 9.76918 7.3763 9.67969 7.46224C9.5902 7.54818 9.54545 7.65799 9.54545 7.79167V17.875C9.54545 18.0087 9.5902 18.1185 9.67969 18.2044C9.76918 18.2904 9.88352 18.3333 10.0227 18.3333H10.9773C11.1165 18.3333 11.2308 18.2904 11.3203 18.2044C11.4098 18.1185 11.4545 18.0087 11.4545 17.875ZM15.2727 17.875V7.79167C15.2727 7.65799 15.228 7.54818 15.1385 7.46224C15.049 7.3763 14.9347 7.33333 14.7955 7.33333H13.8409C13.7017 7.33333 13.5874 7.3763 13.4979 7.46224C13.4084 7.54818 13.3636 7.65799 13.3636 7.79167V17.875C13.3636 18.0087 13.4084 18.1185 13.4979 18.2044C13.5874 18.2904 13.7017 18.3333 13.8409 18.3333H14.7955C14.9347 18.3333 15.049 18.2904 15.1385 18.2044C15.228 18.1185 15.2727 18.0087 15.2727 17.875ZM7.15909 3.66667H13.8409L13.125 1.99089C13.0554 1.90495 12.9709 1.85243 12.8714 1.83333H8.14347C8.04403 1.85243 7.95952 1.90495 7.88991 1.99089L7.15909 3.66667ZM21 4.125V5.04167C21 5.17535 20.9553 5.28516 20.8658 5.37109C20.7763 5.45703 20.6619 5.5 20.5227 5.5H19.0909V19.0781C19.0909 19.8707 18.8572 20.5558 18.3899 21.1335C17.9226 21.7112 17.3608 22 16.7045 22H4.29545C3.6392 22 3.07741 21.7207 2.61009 21.1621C2.14276 20.6035 1.90909 19.928 1.90909 19.1354V5.5H0.477273C0.338068 5.5 0.223722 5.45703 0.134233 5.37109C0.0447443 5.28516 0 5.17535 0 5.04167V4.125C0 3.99132 0.0447443 3.88151 0.134233 3.79557C0.223722 3.70964 0.338068 3.66667 0.477273 3.66667H5.08594L6.12997 1.27474C6.27912 0.921441 6.54759 0.62066 6.93537 0.372396C7.32315 0.124132 7.71591 0 8.11364 0H12.8864C13.2841 0 13.6768 0.124132 14.0646 0.372396C14.4524 0.62066 14.7209 0.921441 14.87 1.27474L15.9141 3.66667H20.5227C20.6619 3.66667 20.7763 3.70964 20.8658 3.79557C20.9553 3.88151 21 3.99132 21 4.125Z" fill="black"/>
</svg>
